<svg width="50" height="50" viewBox="0 0 50 50" fill="none" xmlns="http://www.w3.org/2000/svg">
<path d="M24.2089 1.90245C28.1795 5.17869 32.1501 8.45493 36.1207 11.7312C36.6356 12.156 37.2363 12.156 37.7512 11.7312C41.7218 8.45493 45.6924 5.17869 49.663 1.90245C49.0068 1.63527 48.3507 1.36809 47.6946 1.10091C47.6946 10.4925 47.6946 19.8832 47.6946 29.274C47.6946 30.5564 47.6946 31.838 47.6946 33.1196C47.6946 32.5064 48.1898 32.2121 47.4756 33.11C46.7364 34.0385 45.9963 34.9671 45.257 35.8965C42.2643 39.6554 39.2725 43.4144 36.2798 47.1733C36.8233 47.1733 37.3668 47.1733 37.9103 47.1733C34.9775 43.5861 32.0438 39.998 29.111 36.4107C28.0285 35.0871 26.946 33.7635 25.8644 32.4398C26.4418 33.1459 26.1773 33.3587 26.1773 32.4179C26.1773 31.5375 26.1773 30.6563 26.1773 29.775C26.1773 20.217 26.1773 10.6589 26.1773 1.10091C26.1773 -0.362012 23.8711 -0.362012 23.8711 1.10091C23.8711 10.8166 23.8711 20.5323 23.8711 30.2481C23.8711 33.6286 24.4467 34.3048 26.6582 37.009C29.8654 40.9318 33.0726 44.8545 36.2798 48.7772C36.641 49.2187 37.55 49.2284 37.9103 48.7772C40.9021 45.0183 43.8948 41.2594 46.8866 37.5014C49.0006 34.8453 49.9999 33.9632 49.9999 30.6922C49.9999 20.8284 49.9999 10.9647 49.9999 1.10091C49.9999 0.0462042 48.7744 -0.313832 48.0325 0.299368C44.0619 3.57561 40.0913 6.85185 36.1207 10.1281C36.6642 10.1281 37.2077 10.1281 37.7512 10.1281C33.7806 6.85185 29.81 3.57561 25.8394 0.299368C24.7086 -0.634448 23.0684 0.962501 24.2089 1.90245Z" fill="#F4F7FB"/>
<path d="M38.088 46.4637C38.088 34.7866 38.088 23.1104 38.088 11.4342C38.088 9.97131 35.7827 9.97131 35.7827 11.4342C35.7827 23.1104 35.7827 34.7866 35.7827 46.4637C35.7827 47.9258 38.088 47.9258 38.088 46.4637Z" fill="#F4F7FB"/>
<path d="M0.386314 1.90247C4.35691 5.17871 8.32751 8.45495 12.2981 11.7312C12.8121 12.1561 13.4137 12.1561 13.9276 11.7312C17.8991 8.45495 21.8688 5.17871 25.8394 1.90247C25.1833 1.63529 24.5272 1.36811 23.8711 1.10093C23.8711 10.4925 23.8711 19.8833 23.8711 29.274C23.8711 30.5564 23.8711 31.838 23.8711 33.1196C23.8711 32.5064 24.3672 32.2121 23.653 33.11C22.9129 34.0385 22.1736 34.9671 21.4335 35.8965C18.4408 39.6555 15.449 43.4144 12.4572 47.1733C13.0007 47.1733 13.5433 47.1733 14.0868 47.1733C11.1539 43.5861 8.22114 39.998 5.28744 36.4108C4.20585 35.0871 3.12336 33.7635 2.04088 32.4398C2.61832 33.1459 2.35374 33.3588 2.35374 32.4179C2.35374 31.5376 2.35374 30.6563 2.35374 29.775C2.35374 20.217 2.35374 10.659 2.35374 1.10093C2.35374 -0.361993 0.0484289 -0.361993 0.0484289 1.10093C0.0484289 10.8166 0.0484289 20.5324 0.0484289 30.2481C0.0484289 33.6286 0.624085 34.3048 2.83464 37.0091C6.04276 40.9318 9.24909 44.8545 12.4572 48.7773C12.8183 49.2188 13.7274 49.2284 14.0868 48.7773C17.0794 45.0183 20.0713 41.2594 23.0631 37.5005C25.178 34.8445 26.1773 33.9632 26.1773 30.6913C26.1773 20.8285 26.1773 10.9647 26.1773 1.10093C26.1773 0.0462229 24.9518 -0.313814 24.209 0.298511C20.2384 3.57475 16.2687 6.85187 12.2972 10.1272C12.8416 10.1272 13.3842 10.1272 13.9276 10.1272C9.95704 6.85187 5.98645 3.57475 2.01585 0.298511C0.885097 -0.63443 -0.754272 0.962519 0.386314 1.90247Z" fill="#F4F7FB"/>
<path d="M14.2655 46.4637C14.2655 34.7866 14.2655 23.1104 14.2655 11.4342C14.2655 9.97131 11.9602 9.97131 11.9602 11.4342C11.9602 23.1104 11.9602 34.7866 11.9602 46.4637C11.9602 47.9258 14.2655 47.9258 14.2655 46.4637Z" fill="#F4F7FB"/>
<path d="M25.9386 14.7602C23.2677 14.7602 20.6038 14.6575 17.9402 14.6575C17.7974 14.6575 16.9714 14.5882 17.068 14.5606C17.6694 14.3888 18.3691 14.3656 18.9949 14.344C21.2798 14.2652 23.4865 13.6879 25.6878 13.1183C26.7822 12.8351 27.8564 12.4075 28.9145 12.0123C29.0638 11.9566 30.0665 11.5274 29.9749 11.4992C29.308 11.294 28.3205 11.4764 27.6489 11.4764C25.5606 11.4764 23.5868 11.5502 21.5261 11.9667C18.6849 12.5409 15.9024 13.2647 13.1115 14.019C12.7563 14.1151 12.3585 14.2208 12.034 14.401C11.4386 14.7318 13.3142 15.1786 13.4821 15.2162C15.0615 15.5708 16.9101 15.859 18.5388 15.678C18.6606 15.6645 18.9796 15.4735 18.7953 15.3303C18.5057 15.105 17.6537 15.2732 17.3188 15.2732C14.6464 15.2732 11.9851 15.5811 9.31469 15.5811C8.27441 15.5811 7.84589 15.4874 7.21675 14.6918C6.51434 13.8034 5.91679 12.8608 5.41525 11.8299C5.17684 11.3398 5.24897 10.7639 4.94778 10.2906C4.63476 9.79875 4.49361 9.22267 4.23516 8.70577C3.83642 7.9083 3.50198 6.90927 3.266 6.08334C3.19534 5.83602 3.33575 5.64571 3.13488 5.44484C2.96755 5.27751 2.85473 5.09465 2.72441 4.93175C2.26766 4.36081 3.70091 6.04262 4.30927 6.4482C4.6874 6.70029 4.99449 7.01903 5.36965 7.26913C5.7654 7.53297 6.20256 7.69552 6.58964 7.94185C7.11252 8.27458 7.58016 8.66993 8.04908 9.07633C8.56134 9.52029 9.1738 9.89758 9.71946 10.2963C10.4107 10.8015 11.014 11.3865 11.6692 11.9325C11.9809 12.1922 12.3446 12.5445 12.5984 12.8618C12.948 13.2987 11.5976 13.1399 11.3727 13.0556C10.7438 12.8197 10.5888 12.132 10.09 11.7615C9.50372 11.3259 8.76879 11.2751 8.18591 10.8379C7.62777 10.4193 6.9691 10.0609 6.46422 9.60652C5.45407 8.69738 7.73495 12.0214 8.54507 13.1126C9.12825 13.8981 9.82455 14.5487 10.5347 15.2162C11.4271 16.0551 12.2253 17.0098 13.0659 17.9014C13.3533 18.2062 13.6151 18.76 13.9781 18.9675C14.1669 19.0754 13.7349 18.5322 13.6873 18.4772C13.0427 17.7318 12.1879 17.124 11.424 16.5046C10.1914 15.5052 8.9106 14.5804 7.69563 13.5516C6.35115 12.4131 5.02894 11.2207 3.79619 9.95998C3.42746 9.58287 3.01429 9.07972 2.82703 8.58035C2.7141 8.27921 2.74721 8.99569 2.74721 9.11624C2.74721 9.92957 2.74721 10.7429 2.74721 11.5562C2.74721 12.3639 2.46909 13.1594 2.43936 13.962C2.38808 15.3468 2.23413 16.7265 2.23413 18.1351C2.23413 21.0018 2.24015 23.8419 2.49067 26.6979C2.58603 27.785 2.66804 28.8927 2.82703 29.9703C2.91429 30.5617 3.15768 31.2018 3.15768 31.7946C3.15768 32.2298 3.32238 32.3524 3.62516 32.6725C4.17513 33.2539 4.70845 33.842 5.26703 34.417C5.54497 34.7031 5.77443 35.0373 6.08226 35.2835C6.3559 35.5024 6.23619 34.3211 6.23619 34.0977C6.23619 30.0292 6.39459 26.0068 5.76871 21.9832C5.51114 20.3274 5.44194 18.6351 5.31834 16.9664C5.30516 16.7885 4.99425 14.9853 4.85656 15.182C4.69503 15.4128 4.4917 16.0515 4.4917 16.345C4.4917 18.0898 4.68014 19.7642 4.84516 21.5044C5.05571 23.7247 5.1074 25.9515 5.1074 28.1802C5.1074 28.6297 5.18965 29.1931 5.0846 29.6396C4.88277 30.4974 4.69693 29.618 4.69693 29.2063C4.69693 25.6526 5.70122 22.0621 6.316 18.5912C6.51338 17.4768 6.64676 16.3548 6.79488 15.2333C6.85053 14.812 7.03946 13.8675 6.79488 13.4832C6.55408 13.1048 6.54404 12.9408 6.54404 13.4832C6.54404 14.1251 6.60054 14.7143 6.75497 15.3417C7.23461 17.2902 7.67828 19.2541 8.02628 21.2307C8.87719 26.0639 9.33798 30.9437 9.87908 35.8137C9.91594 36.1454 9.93779 36.6814 9.93039 35.979C9.91634 34.6443 9.82778 33.3142 9.82778 31.977C9.82778 29.6911 9.77492 27.3979 9.85058 25.1131C9.90388 23.5035 10.1753 21.9129 10.3409 20.3129C10.4301 19.4504 10.5461 18.6229 10.5461 17.7589C10.5461 17.3293 10.6487 16.9549 10.6487 17.6106C10.6487 18.3293 10.4663 18.884 10.2839 19.5775C9.93003 20.922 9.59722 22.2966 9.51993 23.6878C9.46708 24.6391 9.40207 25.6123 9.26338 26.5554C9.21145 26.9085 9.23306 27.2816 9.10946 27.6215C9.01908 27.87 8.75551 26.866 8.7503 26.8347C8.2025 23.548 7.99193 19.9404 8.49946 16.6415C8.64439 15.6994 8.8418 14.7692 9.22348 13.8936C9.4986 13.2625 9.41731 14.2967 9.41731 14.4751C9.41731 16.6719 9.4123 18.8687 9.41731 21.0654C9.42266 23.415 9.29391 25.8709 9.74796 28.1916C9.84308 28.6777 9.90344 29.4958 10.5689 29.4344C11.2485 29.3716 11.7571 28.5918 12.1196 28.1232C13.2674 26.6392 14.2671 25.0407 15.1981 23.4142C16.6925 20.803 17.8927 17.9203 19.6562 15.4785C20.1537 14.7896 18.9299 15.175 18.6528 15.2789C18.1054 15.4842 17.7122 15.7992 17.2789 16.1854C16.2109 17.1373 15.1149 18.1042 14.1035 19.1157C13.885 19.3342 12.8158 20.5515 13.5334 19.6744C14.2767 18.7658 15.117 17.9482 15.8366 17.0177C16.18 16.5737 17.1605 15.2041 16.8342 15.6609C15.3731 17.7065 13.5063 19.4506 12.416 21.7609C11.7399 23.1935 11.2148 24.6822 11.0022 26.2532C10.9863 26.3703 10.7862 27.8405 10.8767 27.8495C10.9793 27.8598 11.3056 27.4011 11.3214 27.382C11.9834 26.585 12.5806 25.7417 13.1457 24.8736C14.1999 23.2542 15.1582 21.6249 15.8822 19.834C15.9101 19.7649 16.2602 18.8285 16.0874 19.0929C15.8279 19.4898 15.6171 20.0105 15.4261 20.4383C14.505 22.5011 13.7962 24.6386 13.1115 26.7891C12.625 28.3174 12.0876 29.8658 11.8231 31.4525C11.8135 31.5103 11.7123 32.2893 11.8003 32.034C12.0821 31.2167 12.621 30.4536 13.0431 29.708C13.8083 28.3564 14.5718 27.0049 15.3691 25.6718C16.2009 24.2808 17.0711 22.8837 18.1397 21.6583C18.1709 21.6225 18.8594 20.8153 18.9379 20.8602C19.2115 21.0165 14.5769 28.2135 14.3657 28.5906C13.5248 30.0927 12.678 31.6384 11.9941 33.2198C11.9303 33.3674 11.1742 34.7457 11.6065 34.0293C13.3692 31.1082 15.3957 28.3453 17.2846 25.5064C20.03 21.3804 22.9573 17.3901 25.9614 13.4489C26.7957 12.3544 27.606 11.2223 28.4869 10.1652C28.6078 10.0202 29.0601 9.49197 28.7492 9.99418C28.2816 10.7494 27.3407 11.3175 26.7424 11.9724C24.518 14.4072 22.4423 16.9816 20.3118 19.4976C18.338 21.8286 16.3402 24.1065 14.7306 26.7093C14.5587 26.9872 14.4559 27.3622 14.2631 27.6101C14.0853 27.8387 14.6171 27.1514 14.799 26.926C16.3465 25.007 18.0084 23.1746 19.5764 21.2706C20.9977 19.5447 22.4043 17.8155 24.0345 16.2766C24.4009 15.9307 24.7898 15.5142 25.1975 15.2162C25.435 15.0427 25.2934 15.2665 25.2203 15.4557C24.953 16.1476 24.5435 16.7735 24.1998 17.4282C23.3875 18.9755 22.5523 20.4868 21.6572 21.9889C20.5833 23.7912 19.274 25.645 18.4077 27.5702C18.3567 27.6835 18.288 28.0148 18.3564 27.6728C18.4142 27.3837 18.6039 27.1363 18.7725 26.9032C19.3908 26.0485 20.0543 25.2242 20.7052 24.3947C22.5972 21.9834 24.4298 19.5022 26.4688 17.2116C27.4164 16.147 28.2916 14.9541 29.4105 14.0589C30.3424 13.3134 27.803 15.8298 27.1016 16.7954C24.3878 20.5317 21.9574 24.461 19.2856 28.2258C18.7089 29.0384 18.0993 29.8342 17.5354 30.6544C17.3582 30.9122 17.1762 31.31 16.9596 31.5266C16.6008 31.8854 17.1766 30.5262 17.3929 30.0672C18.306 28.1297 19.5597 26.3772 20.8249 24.657C21.8269 23.2946 22.8966 22.0095 24.0915 20.8146C24.4302 20.4758 24.7827 19.9844 25.2203 19.7656C25.4391 19.6562 25.1301 20.0662 25.0949 20.119C24.1789 21.493 22.9825 22.7409 21.9366 24.0185C19.7236 26.7216 17.8525 29.8185 16.0304 32.7979C15.6717 33.3844 15.3783 33.9955 14.9586 34.5424C14.9062 34.6107 14.6587 35.1436 14.6508 34.9529C14.6055 33.8672 15.876 32.9867 16.5036 32.2392C17.3655 31.2125 18.0555 30.0248 18.955 29.0353C19.2634 28.696 19.1879 28.669 18.7953 28.8871C18.0257 29.3147 17.3682 30.1033 16.7544 30.7171C15.4795 31.992 14.3176 33.3718 13.14 34.7362C12.2745 35.7391 11.5355 36.8697 10.757 37.9402C10.4469 38.3666 9.51108 39.1826 9.04105 38.5559C8.29676 37.5635 7.85129 36.0672 7.69563 34.8503C7.56241 33.8087 7.31467 32.7382 7.26236 31.6919C7.22104 30.8656 7.52431 33.3287 7.57021 34.1547C7.5963 34.6245 7.34861 34.36 7.03432 34.36C6.47869 34.36 6.54404 34.4429 6.54404 34.9985C6.54404 35.4821 6.49459 35.867 6.36161 36.3325C6.30657 36.5251 6.16828 37.0107 6.3388 36.9254" stroke="#F4F7FB" stroke-width="3" stroke-linecap="round"/>
<path d="M3.6709 13.2209C3.6709 15.5918 4.70591 17.81 6.1337 19.6345C6.43234 20.016 6.7184 20.4757 7.05725 20.8145C7.44636 21.2037 7.76818 20.4227 7.98081 20.1988C8.8403 19.2941 9.78788 18.4804 10.6488 17.5764C12.0039 16.1537 13.0903 14.5027 14.4343 13.0841C14.7796 12.7195 14.9587 12.1594 14.9587 11.6816C14.9587 10.979 15.7949 10.8827 16.1388 10.3476C16.5473 9.71225 17.4722 9.35619 17.8548 8.70576C18.1592 8.18835 18.9787 7.63876 19.4739 7.32043C19.9219 7.0324 20.4914 6.74244 20.8877 6.42539C21.7172 5.7618 22.6789 5.21529 23.5273 4.55548C23.9695 4.21151 24.3104 4.12947 24.8328 4.31604C25.9861 4.72793 26.824 5.42565 27.8885 5.95791C28.8384 6.43289 29.9886 6.73115 30.813 7.42875C31.1578 7.72046 31.9649 8.32862 31.9931 8.80838C32.0254 9.35725 32.6295 9.64992 32.9737 9.99417C33.6213 10.6418 34.3385 11.4218 35.1971 11.7843C35.9236 12.091 37.9263 13.3627 37.2209 13.01C36.5957 12.6974 36.0112 12.1724 35.4023 11.8071C34.8181 11.4566 34.1621 11.2466 33.5096 11.0659C32.6396 10.825 31.7252 10.6648 30.9157 10.245C30.3312 9.94193 29.7078 9.64681 29.0686 9.48109C27.9587 9.19335 26.4967 9.11555 25.6309 8.29529C25.357 8.0358 24.9714 7.95533 24.6731 7.7423C24.2609 7.44787 25.6118 8.13514 26.0414 8.40361C27.9338 9.5864 29.6396 11.1898 31.0696 12.8902C31.4287 13.3173 31.8407 13.7175 32.1414 14.1901C32.4194 14.6269 32.1103 13.7557 32.0387 13.6257C31.5385 12.7162 30.9488 11.8556 30.4539 10.9405C29.8523 9.82817 29.2062 8.62536 28.3217 7.7024C28.0202 7.38776 26.9671 6.26586 26.4518 6.90997C26.2769 7.1286 26.3395 7.47825 26.3492 7.7594C26.3776 8.58168 26.6956 9.40137 26.7825 10.2222C26.8189 10.5666 27.3245 14.472 26.0414 13.9221C25.412 13.6524 25.4267 11.6445 25.323 11.0659C25.1312 9.99582 24.6938 9.14615 24.2171 8.19268C24.1837 8.12594 23.7822 7.38314 23.7325 7.38314C23.6888 7.38314 23.5713 7.95954 23.5273 8.03875C23.0914 8.82325 22.4639 9.42896 21.9253 10.1994C21.0756 11.4147 20.1489 12.6124 19.0121 13.5744C18.5084 14.0006 18.4968 13.4819 18.7613 13.1183C19.5416 12.0453 20.5114 11.0592 21.2127 9.93716C21.4192 9.60669 21.9367 9.07906 21.9367 8.65445C21.9367 7.94179 19.6773 9.79926 19.5537 9.91436C18.823 10.5946 17.9891 10.9634 17.4729 11.8812C17.3638 12.0751 16.2169 13.4266 16.4638 13.5059C16.9042 13.6475 17.5193 13.5737 17.9802 13.6314C19.362 13.8041 20.7122 13.9999 22.1077 14.0418C24.1771 14.1041 26.2187 14.1471 28.2875 14.019C30.0976 13.907 31.9129 13.6824 33.7262 13.6371C34.2483 13.624 35.6432 13.4307 35.8698 14.1673C36.1437 15.0576 35.0006 15.9736 34.513 16.5046C33.1756 17.9609 31.6881 19.2542 30.2487 20.6036C30.088 20.7542 29.1719 21.3493 29.2282 21.2649C29.4795 20.8879 30.0434 20.672 30.414 20.4497C31.1552 20.0049 31.8828 19.5221 32.6316 19.0929C32.7357 19.0332 34.6035 17.9476 34.2051 17.7588C33.9876 17.6558 33.5829 17.736 33.35 17.736C32.6868 17.736 32.0178 17.7072 31.3603 17.8102C29.3516 18.1248 27.3877 18.6487 25.4542 19.2639C25.3367 19.3013 24.8754 19.3569 24.8271 19.5261C24.7947 19.6394 25.2763 19.5596 25.323 19.5375C25.9211 19.2551 26.5716 18.9125 27.1473 18.5798C27.4396 18.4109 28.0378 18.2551 28.2419 17.9926C28.4103 17.7761 28.5612 17.5907 28.7835 17.4168C29.3015 17.0114 29.777 16.5574 30.3285 16.1968C30.7027 15.9521 30.7799 16.4009 30.967 16.6871C31.2106 17.0596 31.3512 17.4277 31.6967 17.7417C32.4525 18.4288 33.5182 18.4544 34.4845 18.4544C34.6611 18.4544 35.3272 18.4544 34.7638 18.4544C34.2396 18.4544 33.7181 18.463 33.196 18.5228C31.6471 18.7003 30.3695 19.5616 29.0971 20.4041C27.619 21.3826 26.0284 22.4307 24.8157 23.7391C23.7981 24.8371 22.6716 25.9424 21.5319 26.9145C20.8607 27.4871 20.1804 28.124 19.7817 28.9213C19.6223 29.2401 19.2687 29.6758 19.2687 30.0501C19.2687 30.1228 19.5585 29.7603 19.5993 29.7194C20.42 28.8987 21.3351 28.1628 22.2217 27.4162C25.2359 24.878 28.4129 22.4977 31.3261 19.8454C32.6642 18.6272 34.0756 17.4887 35.2997 16.174C35.5024 15.9563 35.9866 15.3714 35.8869 15.0224C35.8401 14.8587 34.9885 14.9796 34.855 15.0167C33.3612 15.4316 32.0069 16.1457 30.6021 16.8353C29.6162 17.3193 29.1443 18.109 28.6638 19.0701C28.5554 19.2869 28.3672 19.8806 28.7094 19.891C29.4013 19.912 30.0676 19.8717 30.7389 19.6858C31.1218 19.5797 31.9552 19.0927 32.3409 19.1784C32.4931 19.2122 31.1984 20.5686 31.0582 20.7176C29.9149 21.9324 28.8748 23.2459 27.7973 24.5202C26.6092 25.925 25.2916 27.2012 24.0916 28.5906C23.5475 29.2207 23.0981 29.9148 22.5068 30.5061C21.9289 31.0841 21.3245 31.6748 20.8136 32.3133C20.2624 33.0024 19.8701 33.8425 19.2915 34.4854C18.8099 35.0205 20.0729 34.0562 20.1466 34.0065C21.5928 33.0312 23.144 32.2181 24.5876 31.2416C24.9332 31.0078 25.9487 30.291 25.6537 30.5859C25.4597 30.78 25.2935 31.0032 25.095 31.2016C24.5696 31.727 24.0328 32.2221 23.4816 32.7181C23.0986 33.0628 22.3933 33.464 22.1419 33.9039C21.6975 34.6816 21.3983 35.7193 20.7566 36.361C20.4428 36.6748 19.97 36.854 19.5765 37.0508C19.2343 37.2219 18.9887 37.5784 18.653 37.7463" stroke="#F4F7FB" stroke-width="3" stroke-linecap="round"/>
<path d="M21.5263 31.6919C20.8884 31.9408 20.064 31.8515 19.5253 32.2107C18.8838 32.6383 18.4741 33.4732 17.8549 33.9495C17.2877 34.3858 16.8975 35.117 16.7033 35.7966C16.4925 36.5345 15.9977 37.2864 15.8881 38.0542C15.8459 38.3491 15.6768 38.5222 15.8596 38.1568C15.9802 37.9154 16.2753 37.8009 16.4753 37.6209C16.9189 37.2216 17.6661 37.0433 18.2197 36.8456C18.5008 36.7452 18.817 36.6175 19.1148 36.6175C19.3816 36.6175 19.1314 37.0292 19.0635 37.1819C18.875 37.606 18.4661 37.9642 18.3395 38.4076C18.0762 39.3292 17.2155 40.1492 16.7546 40.9787C16.3424 41.7207 15.6447 42.3252 15.2439 43.0824C15.1178 43.3205 14.4457 44.0932 14.4457 43.4415C14.4457 42.5541 14.4457 41.6667 14.4457 40.7792C14.4457 40.2547 14.4457 39.7302 14.4457 39.2058C14.4457 38.8458 14.4391 38.179 14.5711 37.8489C14.6676 37.6077 14.651 37.0736 14.651 37.0736C14.651 37.0736 14.4614 37.582 14.4457 37.8489C14.4012 38.6062 14.2564 39.4938 13.9782 40.2091C13.628 41.1097 13.4593 42.1 13.0889 42.9798C13.0242 43.1334 12.6839 44.2851 12.4504 44.0515C12.0725 43.6736 11.9027 43.1047 11.5154 42.7175C10.5122 41.7143 9.18408 41.1744 8.31152 40.0837C8.02843 39.7298 7.95927 39.1234 7.52479 38.8751C7.4684 38.8429 7.16958 38.3734 7.31385 38.3734C7.53016 38.3734 8.17158 39.1519 8.34572 39.2913C9.41188 40.1442 10.549 40.8198 11.6979 41.5431C12.1575 41.8325 12.9065 42.4265 12.9065 41.5431C12.9065 38.7016 14.1768 36.0478 15.1982 33.4478C15.291 33.2116 15.5277 32.489 15.4662 32.7352C15.3992 33.0031 15.2544 33.2845 15.164 33.5504C14.8987 34.3317 14.3744 35.1437 13.9098 35.8194C13.3681 36.6073 12.7605 37.4477 12.3478 38.3107C12.2002 38.6192 12.0855 38.8963 12.0855 39.2343C12.0855 39.3592 12.1562 39.9218 12.3421 39.7359C12.547 39.531 12.6871 39.1581 12.8267 38.9093C13.4002 37.8868 14.0358 36.9055 14.6738 35.922C16.9287 32.4456 19.3628 29.0885 21.8911 25.8086C22.9116 24.4847 23.91 22.9459 25.0951 21.7609C25.5221 21.3339 24.9033 22.7829 24.81 22.9695" stroke="#F4F7FB" stroke-width="3" stroke-linecap="round"/>
<path d="M25.5284 26.5611C25.5284 26.9634 25.6333 27.8148 25.9901 28.1003C26.1149 28.2002 26.4326 28.8593 26.4519 29.0239C26.5454 29.8188 27.0676 30.4914 27.0676 31.3328C27.0676 31.6893 27.0733 32.2121 27.2957 32.4901C27.5005 32.7462 27.9132 33.1627 27.9855 33.4877C28.1485 34.2213 28.8619 35.1064 29.2454 35.7966C29.8954 36.9666 31.1659 37.6765 31.7652 38.8751C32.2526 39.8499 33.2228 40.5366 33.8859 41.3892C33.9996 41.5354 35.6401 43.5972 35.7672 43.4701C35.9094 43.3279 35.7947 42.5876 35.79 42.3869C35.777 41.826 35.5046 41.156 35.334 40.6196C34.9477 39.4056 34.8665 38.2663 34.8665 36.9938C34.8665 35.6636 34.8665 34.3334 34.8665 33.0031C34.8665 31.8996 34.9746 30.8526 35.1743 29.765C35.3138 29.0058 35.5848 28.151 35.5848 27.382C35.5848 26.621 35.6251 25.9282 35.4024 25.2043C35.2377 24.669 35.1743 23.9542 35.1743 23.4028C35.1743 22.5079 35.0717 21.5922 35.0717 20.6549C35.0717 20.276 34.8946 19.6207 34.7411 19.2753C34.3468 18.3883 34.3381 19.7644 34.2736 20.119C34.071 21.2331 33.9493 22.2322 33.5838 23.3287C32.9126 25.3421 32.3177 27.3779 31.6056 29.3774C31.0515 30.9329 30.6761 32.6715 30.9728 34.303C31.0472 34.7127 31.4518 35.3061 31.788 35.5116C32.2904 35.8186 32.4636 36.5903 32.837 37.0052C33.1276 37.3281 33.0194 36.3529 33.0194 36.2071C33.0194 34.9928 33.0194 33.7785 33.0194 32.5642C33.0194 31.4259 33.0194 30.2876 33.0194 29.1493C33.0194 28.5366 33.1024 27.8701 32.8655 27.2908C32.5227 26.453 32.5191 25.537 32.0958 24.714C31.9907 24.5096 31.1229 23.2601 30.8644 23.8417C30.6765 24.2646 30.454 24.9438 30.454 25.4095C30.454 26.5983 30.1306 27.684 29.8155 28.8187C29.7675 28.9913 29.5339 29.8952 29.3708 29.9417C28.9501 30.0619 28.5805 27.9017 28.5271 27.5873C28.3617 26.6137 28.0938 25.5519 28.0938 24.5658C28.0938 24.2405 28.343 24.5244 28.2762 24.8166C28.1544 25.3495 27.9351 25.8559 27.8942 26.4072C27.7975 27.7134 27.8263 28.9245 28.4016 30.1071C28.6312 30.579 28.922 30.9867 29.1713 31.4354C29.2793 31.6298 29.4185 31.747 29.5304 31.9428C29.7304 32.2927 29.798 31.5916 29.8155 31.4867C30.0373 30.1555 30.0788 28.8083 30.3514 27.4846C30.6566 26.0018 30.9428 24.5251 31.2749 23.0493C31.4619 22.2183 31.4703 21.4018 31.8906 20.6663C32.0046 20.4669 32.1985 20.4545 32.1985 20.7119C32.1985 21.0318 32.0942 21.107 31.9932 21.3846C31.7552 22.0393 31.2955 22.4534 31.2749 23.1747C31.269 23.3828 31.2041 24.7718 30.7618 24.3035C30.4669 23.9913 30.3369 23.4826 30.0207 23.1519C29.209 22.3033 28.2796 21.7526 27.2728 21.1737C26.3417 20.6383 25.2914 20.3472 24.3426 19.8397C23.4044 19.3379 22.5123 18.8434 21.6289 18.2491C20.3553 17.3923 19.0408 16.6459 17.6839 15.9402C17.5924 15.8927 16.7444 15.2881 17.0112 15.2732C17.7802 15.2305 18.574 15.2707 19.3257 15.4329C21.7913 15.9647 23.9405 16.9639 26.1441 18.1237C26.8468 18.4935 25.4609 18.2705 25.2205 18.1693C24.8047 17.9942 24.4126 17.8494 24.0347 17.6334C23.817 17.509 23.8168 17.223 24.0917 17.223C24.5053 17.223 24.9284 17.1911 25.3345 17.28C27.0707 17.6598 28.6864 18.3843 30.454 18.6368C32.7376 18.963 35.7229 18.4734 37.6942 17.2572C39.2155 16.3184 40.7419 14.9032 41.7418 13.4033C41.8182 13.2887 42.0222 12.7034 41.9414 13.067C41.8762 13.3604 41.6667 13.7739 41.5366 14.0418C40.5902 15.9903 40.7693 18.1644 40.71 20.3015C40.6456 22.6174 40.3052 24.9096 40.3052 27.2281C40.3052 30.5592 40.2026 33.9217 40.2026 37.2332" stroke="#F4F7FB" stroke-width="3" stroke-linecap="round"/>
<path d="M46.9614 11.4352C46.9614 12.5902 46.993 13.7482 47.0147 14.8955C47.0411 16.2969 47.1525 17.6889 47.1744 19.0892C47.1845 19.7382 47.2276 20.3883 47.2276 21.0411C47.2276 21.438 47.1572 21.91 47.2542 22.2981C47.3577 22.7118 47.3014 23.1881 47.3755 23.6142C47.4734 24.1772 47.4938 24.811 47.4938 25.3827C47.4938 26.0496 47.6002 26.6835 47.6002 27.3524C47.6002 28.617 47.6535 29.864 47.6535 31.1321" stroke="#F4F7FB" stroke-width="3" stroke-linecap="round"/>
<path d="M45.3111 12.6595C45.3111 14.5149 45.3111 16.3702 45.3111 18.2256C45.3111 20.136 45.3829 22.0611 45.2845 23.969C45.2341 24.9462 45.2047 25.9185 45.2047 26.8969C45.2047 27.7632 45.0982 28.6177 45.0982 29.4818C45.0982 31.3901 45.1514 33.3065 45.1514 35.2075C45.1514 35.5969 45.1514 36.7651 45.1514 36.3757C45.1514 35.6483 45.5714 35.1716 45.8967 34.5391C46.1102 34.1241 46.3852 33.7532 46.5622 33.3206C46.6227 33.1725 46.7421 33.012 46.7485 32.8474C46.7547 32.6862 47.0087 32.2779 47.0087 32.4393C47.0087 32.5386 46.8775 32.6776 46.8431 32.7705C46.7675 32.9748 46.5686 33.1163 46.4527 33.294C45.9977 33.9917 45.4427 34.6141 45.0036 35.3258C44.6331 35.9262 44.2629 36.5054 43.8738 37.0944C43.6254 37.4703 43.3947 37.8544 43.1551 38.236C42.8383 38.7405 42.458 39.1976 42.2265 39.7532C41.9674 40.375 41.5237 40.8282 41.1322 41.3502C41.0254 41.4926 40.7445 41.5962 40.6797 41.7258" stroke="#F4F7FB" stroke-width="3" stroke-linecap="round"/>
<path d="M40.6264 41.6726C40.2046 42.0021 39.8213 42.4197 39.4434 42.8024C39.0085 43.2427 38.5657 43.7036 38.1657 44.1747C38.1366 44.209 37.7044 44.5737 37.7044 44.5207C37.7044 44.306 37.9513 43.8621 38.0208 43.6571C38.5706 42.0353 39.4107 40.5139 40.1532 38.9754C41.1506 36.9086 42.192 34.8547 43.5543 33.0072C43.8025 32.6705 44.0936 32.2974 44.2878 31.9306C44.2895 31.9274 43.9954 32.2309 43.927 32.3033C43.4997 32.755 43.1852 33.2852 42.8504 33.8057C42.0513 35.0478 41.3025 36.3153 40.446 37.5203C39.6484 38.6425 38.805 39.7291 37.9942 40.8416C37.6628 41.2963 37.353 41.8052 36.9532 42.205C36.8755 42.2826 37.143 41.4997 37.1779 41.4242C37.9897 39.6718 38.8491 37.9279 39.748 36.219C40.8394 34.1442 42.047 32.0882 42.5695 29.7894C42.6303 29.5216 42.5961 29.2237 42.5961 28.9495C42.5961 28.7261 42.2431 29.3459 42.1998 29.4108C41.6498 30.2357 41.0896 31.0276 40.5732 31.8774C40.1051 32.6475 39.6907 33.4398 39.2837 34.2434C38.7939 35.2103 38.2254 36.1334 37.7369 37.1003C37.4481 37.672 37.1667 38.2528 36.8201 38.792C36.8101 38.8075 36.7402 38.8826 36.7402 38.8719C36.7402 38.6173 36.8356 38.4232 36.9532 38.1946C39.0109 34.1935 41.2487 30.2808 43.2526 26.2522C43.6767 25.3996 43.927 24.6477 43.927 23.7088C43.927 23.5139 43.7675 23.6856 43.7347 23.762C43.4207 24.4947 42.927 25.1814 42.5074 25.8559C41.5176 27.4468 40.4486 28.9765 39.3665 30.5051C39.0548 30.9455 38.7297 31.3807 38.3905 31.8005C38.1863 32.0532 37.95 32.385 37.6778 32.5665C37.5013 32.6841 37.6376 32.3641 37.6718 32.2766C38.0641 31.2742 38.5035 30.2905 38.9672 29.3191C40.1061 26.9335 41.3482 24.581 42.6345 22.2714C43.1218 21.3965 43.6489 20.5347 44.0867 19.6333C44.1523 19.4982 44.0614 19.6058 44.0216 19.657C43.8428 19.8869 43.6389 20.0947 43.4538 20.3195C42.3492 21.6608 41.2348 22.996 40.165 24.3653C39.1639 25.6468 38.194 26.9661 37.1543 28.216C37.062 28.327 36.5842 29.1033 36.3942 29.1033C36.344 29.1033 36.4173 28.915 36.4238 28.8933C36.532 28.5326 36.8352 28.1812 37.0182 27.8581C38.167 25.8309 39.1924 23.738 40.2833 21.6799C40.9899 20.3469 41.7112 19.0223 42.4305 17.6962C42.5495 17.4766 42.8623 17.0235 42.8623 16.7587C42.8623 16.6181 42.6627 17.0039 42.6493 17.0367C42.4237 17.5883 42.1566 18.1197 41.9306 18.6722C41.3063 20.1984 40.8748 21.7839 40.372 23.348C40.3479 23.4231 40.3444 23.4609 40.372 23.348C40.4305 23.1089 40.5645 22.8753 40.6619 22.65C41.228 21.3402 41.9121 20.0805 42.4778 18.7698C42.8138 17.9911 43.4345 16.8452 43.2319 15.9335C43.2173 15.8677 43.0608 15.7143 42.9983 15.7768C42.9297 15.8454 42.911 16.032 42.8918 16.1198C42.8244 16.4279 42.7672 16.7494 42.7144 17.0603C42.4905 18.3776 42.3791 19.6992 42.1051 21.0115C41.7852 22.5439 41.2648 24.0757 40.3661 25.3738C40.2122 25.5962 39.8751 26.1753 39.538 26.1753C39.2302 26.1753 39.111 25.2848 39.056 25.1077C38.0522 21.878 38.0194 18.5658 37.6866 15.2385C37.6748 15.12 37.592 14.6268 37.592 15.0137C37.592 15.829 37.592 16.6443 37.592 17.4596C37.592 18.3074 37.592 19.1552 37.592 20.003C37.592 20.2535 37.586 20.5795 37.6985 20.8045" stroke="#F4F7FB" stroke-width="3" stroke-linecap="round"/>
<path d="M38.497 16.4392C38.497 15.7617 38.4438 15.0804 38.4438 14.4134C38.4438 13.7272 38.3497 12.9661 38.4467 12.2869C38.6533 10.8406 39.9592 9.86652 40.9192 8.9065C41.2482 8.57752 41.5299 8.21296 41.8626 7.88024C42.2607 7.48217 42.7269 7.1297 43.1285 6.75048C43.5606 6.34235 44.07 6.02595 44.5126 5.63255C44.6784 5.4851 44.9595 5.40663 45.0982 5.23328C45.1906 5.11776 45.3337 4.98619 45.4708 4.94049" stroke="#F4F7FB" stroke-width="3" stroke-linecap="round"/>
<path d="M46.6951 4.14197C46.4555 4.86063 46.0302 5.51111 45.6718 6.17673C44.968 7.48375 44.1287 8.69437 43.3709 9.96824C42.6169 11.2355 41.8292 12.4822 41.064 13.742C40.8572 14.0826 40.6352 14.4062 40.4134 14.7357C40.342 14.8418 40.2754 15.0271 40.1738 15.1084C40.0763 15.1864 39.7213 16.0147 39.7213 15.5757C39.7213 14.535 39.6393 13.5023 40.1235 12.5472C40.621 11.5661 41.2765 10.6072 42.0075 9.78488C42.1619 9.61111 42.2893 9.36994 42.4481 9.21112C42.6673 8.99199 42.9902 8.90176 43.2082 8.66694C43.5016 8.35097 43.81 8.02693 44.1221 7.72941C44.5668 7.30537 45.11 6.66141 45.6836 6.38967C45.863 6.30472 46.0257 6.16672 46.2101 6.06138C46.2792 6.02186 46.8021 5.7383 46.7069 5.85732C46.6151 5.97212 46.5284 6.26292 46.4822 6.4015C46.1891 7.28073 46.0483 8.2609 45.8729 9.16972C45.4935 11.1356 44.825 13.0991 43.9535 14.8984C43.7552 15.3077 43.617 15.7455 43.3975 16.1435C43.3267 16.2719 43.2985 16.4877 43.2082 16.596C43.1507 16.665 43.1816 16.5328 43.1816 16.4866C43.1816 16.0958 43.3725 15.7072 43.5128 15.3509C44.0558 13.9719 44.6446 12.5973 45.2252 11.234C45.4742 10.6494 45.6611 10.0422 45.8966 9.45364C46.0879 8.97536 46.2096 8.45271 46.4526 8.0015C46.5907 7.745 46.7415 7.49377 46.8666 7.2296C46.9953 6.95804 46.9515 7.41516 46.9347 7.49577C46.8094 8.09721 46.8797 8.72398 46.8282 9.33238C46.756 10.1836 46.6572 11.0076 46.5236 11.8492C46.4644 12.2219 46.3225 12.5711 46.3225 12.9524C46.3225 13.1265 46.2702 13.2954 46.216 13.4581" stroke="#F4F7FB" stroke-width="3" stroke-linecap="round"/>
</svg>
